# xmcd
#
# Track frame offsets:
#	150
#	12399
#	26431
#	39082
#	51075
#	61545
#	74625
#	89118
#	101173
#	112844
#	123675
#	137437
#	150368
#	162449
#	176362
#	190798
#	202573
#	215451
#
# Disc length: 3042 seconds
#
# Revision: 1
# Processed by: cddbd v1.5.2PL0 Copyright (c) Steve Scherf et al.
# Submitted via: audiograbber 1.83.01
#
DISCID=e70be012
DTITLE=Ray Charles - Ray Charles Collection Vol. 3
DYEAR=1900
DGENRE=Blues
TTITLE0=Mess Around
TTITLE1=Misery In My Heart (Goin Down To The River)
TTITLE2=Rockin' Chair Blues
TTITLE3=Roll With My Baby
TTITLE4=Sittin' On Top Of The World
TTITLE5=Snowfall - I Used To Be So Happy
TTITLE6=Someday (Blues Is My Middle Name)
TTITLE7=St Pete's Blues (Short Version)
TTITLE8=Tell Me Baby (What Have I Done)
TTITLE9=Th' Ego Song
TTITLE10=The Midnight Hour
TTITLE11=The Snow Is Falling
TTITLE12=The Sun's Gonna Snine
TTITLE13=This Love Of Mine
TTITLE14=Walkin' and Talkin' (To Myself)
TTITLE15=What Have I Done (Ray Charles Blues)
TTITLE16=Why Did You Go
TTITLE17=You'll Never Miss The Water Until The Well's Gone Dry
EXTD=
EXTT0=
EXTT1=
EXTT2=
EXTT3=
EXTT4=
EXTT5=
EXTT6=
EXTT7=
EXTT8=
EXTT9=
EXTT10=
EXTT11=
EXTT12=
EXTT13=
EXTT14=
EXTT15=
EXTT16=
EXTT17=
PLAYORDER=
